HIERARCHY
ROOT Hips
{
 OFFSET 0.000000 0.000000 0.000000
 CHANNELS 6 Xposition Yposition Zposition Yrotation Xrotation Zrotation
 JOINT Chest
 {
  OFFSET 0.000000 10.354800 0.006500
  CHANNELS 3 Yrotation Xrotation Zrotation
  JOINT Chest2
  {
   OFFSET 0.000000 10.435800 -0.013200
   CHANNELS 3 Yrotation Xrotation Zrotation
   JOINT Chest3
   {
    OFFSET 0.000000 10.393700 0.000000
    CHANNELS 3 Yrotation Xrotation Zrotation
    JOINT Chest4
    {
     OFFSET 0.000000 10.383100 0.000000
     CHANNELS 3 Yrotation Xrotation Zrotation
     JOINT Neck
     {
      OFFSET 0.000000 15.694000 0.000000
      CHANNELS 3 Yrotation Xrotation Zrotation
      JOINT Head
      {
       OFFSET 0.000000 9.711000 -0.028000
       CHANNELS 3 Yrotation Xrotation Zrotation
       End Site
       {
        OFFSET 0.000000 18.578700 -0.014800
       }
      }
     }
     JOINT RightCollar
     {
      OFFSET -3.157200 10.367500 0.000000
      CHANNELS 3 Yrotation Xrotation Zrotation
      JOINT RightShoulder
      {
       OFFSET -14.482500 0.000000 0.000000
       CHANNELS 3 Yrotation Xrotation Zrotation
       JOINT RightElbow
       {
        OFFSET 0.000000 -31.707800 0.000000
        CHANNELS 3 Yrotation Xrotation Zrotation
        JOINT RightWrist
        {
         OFFSET 0.000000 -25.659300 0.000000
         CHANNELS 3 Yrotation Xrotation Zrotation
         End Site
         {
          OFFSET 0.000000 -18.994300 0.000000
         }
        }
       }
      }
     }
     JOINT LeftCollar
     {
      OFFSET 3.157200 10.367500 0.000000
      CHANNELS 3 Yrotation Xrotation Zrotation
      JOINT LeftShoulder
      {
       OFFSET 14.482500 0.000000 0.000000
       CHANNELS 3 Yrotation Xrotation Zrotation
       JOINT LeftElbow
       {
        OFFSET 0.000000 -31.707800 0.000000
        CHANNELS 3 Yrotation Xrotation Zrotation
        JOINT LeftWrist
        {
         OFFSET 0.000000 -25.659300 0.000000
         CHANNELS 3 Yrotation Xrotation Zrotation
         End Site
         {
          OFFSET 0.000000 -18.994300 0.000000
         }
        }
       }
      }
     }
    }
   }
  }
 }
 JOINT RightHip
 {
  OFFSET -8.365600 -0.032100 -0.003200
  CHANNELS 3 Yrotation Xrotation Zrotation
  JOINT RightKnee
  {
   OFFSET 0.000000 -43.980000 0.003100
   CHANNELS 3 Yrotation Xrotation Zrotation
   JOINT RightAnkle
   {
    OFFSET 0.000000 -42.882800 0.005200
    CHANNELS 3 Yrotation Xrotation Zrotation
    JOINT RightToe
    {
     OFFSET 0.000000 -4.915500 10.826300
     CHANNELS 3 Yrotation Xrotation Zrotation
     End Site
     {
      OFFSET 0.000000 -1.517500 6.175900
     }
    }
   }
  }
 }
 JOINT LeftHip
 {
  OFFSET 8.365600 -0.032100 -0.003200
  CHANNELS 3 Yrotation Xrotation Zrotation
  JOINT LeftKnee
  {
   OFFSET 0.000000 -43.980000 0.003100
   CHANNELS 3 Yrotation Xrotation Zrotation
   JOINT LeftAnkle
   {
    OFFSET 0.000000 -42.882800 0.005200
    CHANNELS 3 Yrotation Xrotation Zrotation
    JOINT LeftToe
    {
     OFFSET 0.000000 -4.915500 10.826300
     CHANNELS 3 Yrotation Xrotation Zrotation
     End Site
     {
      OFFSET 0.000000 -1.517500 6.175900
     }
    }
   }
  }
 }
}
MOTION
Frames: 9
Frame Time: 0.008333
-0.188791 127.305542 42.641050 172.483210 -37.168646 -2.542025 2.284122 23.467000 -0.127903 0.334770 3.471741 -0.076514 0.538273 5.598113 -0.113553 1.887674 19.690455 -0.164511 0.596036 23.436884 -8.690365 2.648282 0.000829 -9.739550 6.469180 5.363767 -4.825149 1.534812 -4.315548 -1.222095 -97.182362 -65.653425 120.707727 -19.534512 -0.577178 -23.684487 -1.425866 8.003048 0.349877 -2.154568 -26.609631 3.999505 168.496136 -62.000771 170.072130 13.421455 0.000318 29.214266 5.585230 -45.378611 0.503242 -93.487448 77.798252 -87.830054 3.809700 6.926265 -17.173314 -0.009895 -0.001962 -0.004493 -14.261208 -44.783450 -0.856909 122.011075 85.405847 113.868073 -1.912101 -28.567610 0.089250 -0.003269 -0.005541 -0.001484
-0.184357 127.307000 42.638724 172.487445 -37.166838 -2.538552 2.295292 23.454243 -0.124178 0.347465 3.451488 -0.074932 0.534061 5.595758 -0.115777 1.909609 19.640942 -0.175114 0.575252 23.571913 -8.700163 2.667049 0.253857 -9.851529 6.484999 5.362727 -4.844988 1.593339 -4.320025 -1.318122 -96.808293 -65.530893 120.404327 -19.618497 -0.532364 -23.767745 -1.522520 7.912254 0.342314 -2.376603 -27.722717 4.038269 171.054329 -61.175739 168.461009 12.894223 -0.479360 28.706964 5.595108 -45.381867 0.496248 -93.510442 77.794256 -87.854138 3.850628 6.925984 -17.180316 -0.007598 -0.003215 -0.003450 -14.253335 -44.781893 -0.846249 121.979759 85.411627 113.836201 -1.913224 -28.519848 0.047226 -0.001634 -0.002612 -0.000742
-0.181098 127.307228 42.637040 172.502724 -37.152028 -2.540414 2.294300 23.429539 -0.123934 0.345562 3.446503 -0.075519 0.529140 5.600184 -0.117047 1.926430 19.583638 -0.187817 0.569964 23.689427 -8.717053 2.689239 0.486673 -9.964840 6.507873 5.347967 -4.871584 1.659591 -4.323033 -1.410911 -96.473314 -65.417408 120.137395 -19.694840 -0.505306 -23.835022 -1.603216 7.806890 0.328419 -2.626077 -28.780651 4.105524 173.351473 -60.366850 167.100404 12.420972 -0.951386 28.282672 5.595374 -45.396449 0.482966 -93.520154 77.794440 -87.869755 3.965997 6.926820 -17.197340 0.001785 -0.008365 0.000811 -14.231297 -44.786938 -0.839029 121.826281 85.405876 113.692907 -1.969917 -28.507217 0.053108 0.005248 -0.001437 0.002383
-0.182851 127.305980 42.635565 172.520288 -37.122299 -2.520700 2.287060 23.379854 -0.143416 0.335502 3.452438 -0.079345 0.539614 5.568553 -0.118193 1.925847 19.564353 -0.201132 0.583043 23.894930 -8.835538 2.690861 0.599656 -9.970556 6.518872 5.352198 -4.882534 1.731491 -4.346929 -1.516459 -96.176597 -65.313415 119.910267 -19.758092 -0.495673 -23.885019 -1.674553 7.696639 0.318361 -2.913820 -29.778428 4.202164 175.444148 -59.581064 165.914913 12.001304 -1.402781 27.971792 5.630016 -45.425906 0.439423 -93.544291 77.784348 -87.899286 4.013908 6.924446 -17.194595 0.010813 -0.010568 0.004909 -14.213592 -44.817477 -0.865240 121.547616 85.370672 113.401505 -2.027765 -28.490625 0.068046 -0.000243 -0.002364 -0.000110
-0.184183 127.306453 42.631004 172.528879 -37.105570 -2.499953 2.299135 23.336215 -0.163245 0.324944 3.452963 -0.077848 0.553127 5.513979 -0.129446 1.915531 19.582677 -0.200871 0.599807 24.038908 -8.904549 2.711839 0.740078 -10.012547 6.517508 5.392641 -4.863624 1.803381 -4.409608 -1.648752 -95.921645 -65.224996 119.728217 -19.804252 -0.502884 -23.908585 -1.733438 7.587657 0.316538 -3.257279 -30.722911 4.328628 177.361311 -58.824513 164.869992 11.619674 -1.805670 27.801025 5.666692 -45.442409 0.411792 -93.564833 77.768330 -87.920376 3.882507 6.923244 -17.170190 0.002090 -0.004993 0.000949 -14.187564 -44.836941 -0.893405 121.528395 85.368220 113.377319 -2.064522 -28.446953 0.051415 -0.004004 -0.000535 -0.001818
-0.183738 127.307680 42.624898 172.531853 -37.091710 -2.488704 2.294378 23.319434 -0.177333 0.342256 3.418407 -0.087414 0.542610 5.517452 -0.128240 1.918220 19.558119 -0.212039 0.613538 24.125334 -8.911164 2.762322 0.900519 -10.107698 6.535512 5.321745 -4.922870 1.843510 -4.365205 -1.691339 -95.713082 -65.156780 119.595643 -19.827788 -0.519453 -23.902950 -1.779692 7.489408 0.325378 -3.647733 -31.624222 4.479639 179.120386 -58.104947 163.953367 11.273254 -2.135297 27.766409 5.683909 -45.454996 0.398077 -93.567483 77.759523 -87.930064 3.821590 6.921162 -17.153721 -0.005920 -0.003676 -0.002688 -14.148941 -44.843811 -0.913171 121.549240 85.378713 113.400760 -2.097856 -28.433578 0.064501 -0.002219 -0.000267 -0.001007
-0.182898 127.308886 42.617952 172.531168 -37.073584 -2.481027 2.299896 23.294775 -0.187460 0.341628 3.412216 -0.091742 0.543162 5.500951 -0.131118 1.919151 19.559086 -0.209632 0.648281 24.203916 -8.979978 2.802849 1.006497 -10.140639 6.537524 5.257852 -4.967924 1.878725 -4.352939 -1.760193 -95.556034 -65.110525 119.516638 -19.827788 -0.532350 -23.868553 -1.820442 7.372643 0.334338 -4.049347 -32.480508 4.639719 -179.283603 -57.430825 163.160134 10.968002 -2.382022 27.849443 5.698017 -45.471731 0.389173 -93.564568 77.749132 -87.938772 3.830988 6.918261 -17.146592 -0.009326 -0.006051 -0.004234 -14.115827 -44.853156 -0.929088 121.628501 85.395954 113.482703 -2.121651 -28.429743 0.082147 -0.000286 -0.000074 -0.000130
-0.181253 127.308939 42.611774 172.529613 -37.039927 -2.481934 2.308606 23.258804 -0.191195 0.342330 3.403055 -0.097448 0.541778 5.487389 -0.131198 1.923248 19.556417 -0.206187 0.689128 24.269373 -9.042152 2.847156 1.099394 -10.168881 6.524254 5.207814 -4.995701 1.902759 -4.349475 -1.835127 -95.448544 -65.088662 119.488829 -19.807489 -0.532181 -23.803653 -1.863035 7.264081 0.358605 -4.441046 -33.290836 4.794939 -177.849955 -56.812960 162.473148 10.706910 -2.554912 28.037870 5.723570 -45.501065 0.388076 -93.556931 77.728618 -87.921853 3.815461 6.911315 -17.149435 -0.003899 -0.006937 -0.001770 -14.095111 -44.877079 -0.932851 121.801565 85.419926 113.662053 -2.133970 -28.434008 0.099371 0.002385 0.000368 0.001083
-0.181302 127.304415 42.610443 172.531980 -36.959496 -2.483382 2.308703 23.180998 -0.202375 0.339387 3.397838 -0.092841 0.542656 5.473921 -0.136046 1.927872 19.522576 -0.220090 0.714462 24.331468 -9.040655 2.920331 1.199634 -10.247299 6.500628 5.175535 -5.002387 1.928131 -4.307272 -1.851729 -95.475873 -65.136687 119.588640 -19.771030 -0.511279 -23.711533 -1.901624 7.192459 0.409700 -4.833132 -34.060412 4.943227 -176.546707 -56.255660 161.868094 10.497883 -2.674188 28.308540 5.742161 -45.578050 0.369608 -93.559018 77.722746 -87.919915 3.834760 6.900500 -17.154873 0.000057 -0.004521 0.000026 -14.043439 -44.951314 -0.975760 121.751584 85.418008 113.660751 -2.139841 -28.439058 0.105219 0.002257 0.003775 0.001025
